[h264 @ 0x5581b853c780] Reinit context to 1280x720, pix_fmt: yuv420p
Input #0, mov,mp4,m4a,3gp,3g2,mj2, from '/var/www/html/project/media/video/original/treno.mp4':
  Metadata:
    major_brand     : mp42
    minor_version   : 1
    compatible_brands: isommp41mp42
    creation_time   : 2024-09-19T09:39:22.000000Z
  Duration: 00:00:39.88, start: 0.000000, bitrate: 12216 kb/s
    Stream #0:0(eng): Audio: aac (LC) (mp4a / 0x6134706D), 48000 Hz, stereo, fltp, 130 kb/s (default)
    Metadata:
      creation_time   : 2024-09-19T09:39:22.000000Z
      handler_name    : Core Media Audio
    Stream #0:1(und): Video: h264 (High), 1 reference frame (avc1 / 0x31637661), yuv420p(tv, bt709, progressive, left), 1280x720, 12037 kb/s, SAR 1:1 DAR 16:9, 25 fps, 25 tbr, 25k tbn, 50k tbc (default)
    Metadata:
      creation_time   : 2024-09-19T09:39:22.000000Z
      handler_name    : Core Media Video
[h264 @ 0x5581b853f3c0] Reinit context to 1280x720, pix_fmt: yuv420p
Input #1, mov,mp4,m4a,3gp,3g2,mj2, from '/var/www/html/project/static/images/templates/Codino.mp4':
  Metadata:
    major_brand     : mp42
    minor_version   : 1
    compatible_brands: isommp41mp42
    creation_time   : 2021-07-11T07:02:58.000000Z
  Duration: 00:00:02.00, start: 0.000000, bitrate: 1007 kb/s
    Stream #1:0(ita): Audio: aac (LC) (mp4a / 0x6134706D), 44100 Hz, stereo, fltp, 102 kb/s (default)
    Metadata:
      creation_time   : 2021-07-11T07:02:58.000000Z
      handler_name    : Core Media Audio
    Stream #1:1(und): Video: h264 (High), 1 reference frame (avc1 / 0x31637661), yuv420p(tv, bt709, progressive, left), 1280x720 [SAR 1:1 DAR 16:9], 813 kb/s, 25 fps, 25 tbr, 25k tbn, 50k tbc (default)
    Metadata:
      creation_time   : 2021-07-11T07:02:58.000000Z
      handler_name    : Core Media Video
[Parsed_scale_0 @ 0x5581b854a1c0] w:1920 h:1080 flags:'bilinear' interl:0
[Parsed_scale_2 @ 0x5581b864cf00] w:1920 h:1080 flags:'bilinear' interl:0
Stream mapping:
  Stream #0:0 (aac) -> concat:in0:a0
  Stream #0:1 (h264) -> scale
  Stream #1:0 (aac) -> concat:in1:a0
  Stream #1:1 (h264) -> scale
  concat:out:v0 -> Stream #0:0 (libx264)
  concat:out:a0 -> Stream #0:1 (aac)
Press [q] to stop, [?] for help
[h264 @ 0x5581b86d17c0] Reinit context to 1280x720, pix_fmt: yuv420p
[h264 @ 0x5581b89a94c0] Reinit context to 1280x720, pix_fmt: yuv420p
[Parsed_scale_0 @ 0x5581b98cbe40] w:1920 h:1080 flags:'bilinear' interl:0
[Parsed_scale_2 @ 0x5581b98d4640] w:1920 h:1080 flags:'bilinear' interl:0
[graph 0 input from stream 0:1 @ 0x5581b98d7880] w:1280 h:720 pixfmt:yuv420p tb:1/25000 fr:25/1 sar:1/1 sws_param:flags=2
[graph 0 input from stream 1:1 @ 0x5581b98d8900] w:1280 h:720 pixfmt:yuv420p tb:1/25000 fr:25/1 sar:1/1 sws_param:flags=2
[graph_0_in_0_0 @ 0x5581b98d9880] tb:1/48000 samplefmt:fltp samplerate:48000 chlayout:0x3
[graph_0_in_1_0 @ 0x5581b98da9c0] tb:1/44100 samplefmt:fltp samplerate:44100 chlayout:0x3
[Parsed_concat_4 @ 0x5581b98d5900] auto-inserting filter 'auto_resampler_0' between the filter 'graph_0_in_1_0' and the filter 'Parsed_concat_4'
[Parsed_scale_0 @ 0x5581b98cbe40] w:1280 h:720 fmt:yuv420p sar:1/1 -> w:1920 h:1080 fmt:yuv420p sar:1/1 flags:0x2
[Parsed_setsar_1 @ 0x5581b98d3f80] w:1920 h:1080 sar:1/1 dar:16/9 -> sar:1/1 dar:16/9
[Parsed_scale_2 @ 0x5581b98d4640] w:1280 h:720 fmt:yuv420p sar:1/1 -> w:1920 h:1080 fmt:yuv420p sar:1/1 flags:0x2
[Parsed_setsar_3 @ 0x5581b98d4b40] w:1920 h:1080 sar:1/1 dar:16/9 -> sar:1/1 dar:16/9
[auto_resampler_0 @ 0x5581b98dee00] ch:2 chl:stereo fmt:fltp r:44100Hz -> ch:2 chl:stereo fmt:fltp r:48000Hz
[libx264 @ 0x5581b864bc00] using SAR=1/1
[libx264 @ 0x5581b864bc00] using cpu capabilities: MMX2 SSE2Fast SSSE3 SSE4.2 AVX FMA3 BMI2 AVX2
[libx264 @ 0x5581b864bc00] profile High, level 4.0
[libx264 @ 0x5581b864bc00] 264 - core 155 r2917 0a84d98 - H.264/MPEG-4 AVC codec - Copyleft 2003-2018 - http://www.videolan.org/x264.html - options: cabac=1 ref=1 deblock=1:0:0 analyse=0x3:0x113 me=hex subme=2 psy=1 psy_rd=1.00:0.00 mixed_ref=0 me_range=16 chroma_me=1 trellis=0 8x8dct=1 cqm=0 deadzone=21,11 fast_pskip=1 chroma_qp_offset=0 threads=24 lookahead_threads=8 sliced_threads=0 nr=0 decimate=1 interlaced=0 bluray_compat=0 constrained_intra=0 bframes=3 b_pyramid=2 b_adapt=1 b_bias=0 direct=1 weightb=1 open_gop=0 weightp=1 keyint=250 keyint_min=25 scenecut=40 intra_refresh=0 rc_lookahead=10 rc=crf mbtree=1 crf=18.0 qcomp=0.60 qpmin=0 qpmax=69 qpstep=4 ip_ratio=1.40 aq=1:1.00
Output #0, mp4, to '/var/www/html/project/media/video/watermarks/treno.mp4':
  Metadata:
    major_brand     : mp42
    minor_version   : 1
    compatible_brands: isommp41mp42
    encoder         : Lavf58.29.100
    Stream #0:0: Video: h264 (libx264), 1 reference frame (avc1 / 0x31637661), yuv420p(progressive), 1920x1080 [SAR 1:1 DAR 16:9], q=-1--1, 25 fps, 12800 tbn, 25 tbc (default)
    Metadata:
      encoder         : Lavc58.54.100 libx264
    Side data:
      cpb: bitrate max/min/avg: 0/0/0 buffer size: 0 vbv_delay: -1
    Stream #0:1: Audio: aac (LC) (mp4a / 0x6134706D), 48000 Hz, stereo, fltp, delay 1024, 128 kb/s (default)
    Metadata:
      encoder         : Lavc58.54.100 aac
[Parsed_concat_4 @ 0x5581b98d5900] EOF on in0:a0, 1 streams left in segment.
[Parsed_concat_4 @ 0x5581b98d5900] EOF on in0:v0, 0 streams left in segment.
[Parsed_concat_4 @ 0x5581b98d5900] Segment finished at pts=39892000
[Parsed_concat_4 @ 0x5581b98d5900] EOF on in1:v0, 1 streams left in segment.
[Parsed_concat_4 @ 0x5581b98d5900] EOF on in1:a0, 0 streams left in segment.
[Parsed_concat_4 @ 0x5581b98d5900] Segment finished at pts=41910687
No more output streams to write to, finishing.
frame= 1047 fps= 39 q=-1.0 Lsize=   53326kB time=00:00:41.92 bitrate=10421.0kbits/s speed=1.57x    
[AVIOContext @ 0x5581b8539180] Statistics: 0 seeks, 52 writeouts
video:52647kB audio:648kB subtitle:0kB other streams:0kB global headers:0kB muxing overhead: 0.057151%
Input file #0 (/var/www/html/project/media/video/original/treno.mp4):
  Input stream #0:0 (audio): 1872 packets read (649854 bytes); 1870 frames decoded (1914816 samples); 
  Input stream #0:1 (video): 997 packets read (60005624 bytes); 997 frames decoded; 
  Total: 2869 packets (60655478 bytes) demuxed
Input file #1 (/var/www/html/project/static/images/templates/Codino.mp4):
  Input stream #1:0 (audio): 89 packets read (26579 bytes); 87 frames decoded (89024 samples); 
  Input stream #1:1 (video): 50 packets read (203365 bytes); 50 frames decoded; 
  Total: 139 packets (229944 bytes) demuxed
Output file #0 (/var/www/html/project/media/video/watermarks/treno.mp4):
  Output stream #0:0 (video): 1047 frames encoded; 1047 packets muxed (53910619 bytes); 
  Output stream #0:1 (audio): 1965 frames encoded (2011713 samples); 1966 packets muxed (664010 bytes); 
  Total: 3013 packets (54574629 bytes) muxed
[AVIOContext @ 0x5581b858a440] Statistics: 2 seeks, 212 writeouts
[libx264 @ 0x5581b864bc00] frame I:12    Avg QP:14.70  size:279218
[libx264 @ 0x5581b864bc00] frame P:507   Avg QP:18.91  size: 75485
[libx264 @ 0x5581b864bc00] frame B:528   Avg QP:21.91  size: 23274
[libx264 @ 0x5581b864bc00] consecutive B-frames: 27.1% 13.4% 10.6% 48.9%
[libx264 @ 0x5581b864bc00] mb I  I16..4: 17.6% 14.3% 68.1%
[libx264 @ 0x5581b864bc00] mb P  I16..4:  6.2%  8.5%  2.7%  P16..4: 38.5% 19.3% 13.2%  0.0%  0.0%    skip:11.7%
[libx264 @ 0x5581b864bc00] mb B  I16..4:  1.2%  1.1%  0.1%  B16..8: 22.4%  9.0%  1.4%  direct:21.6%  skip:43.0%  L0:33.8% L1:41.8% BI:24.3%
[libx264 @ 0x5581b864bc00] 8x8 transform intra:44.8% inter:38.8%
[libx264 @ 0x5581b864bc00] coded y,uvDC,uvAC intra: 53.4% 57.0% 28.3% inter: 29.7% 22.5% 1.0%
[libx264 @ 0x5581b864bc00] i16 v,h,dc,p: 47% 33% 15%  5%
[libx264 @ 0x5581b864bc00] i8 v,h,dc,ddl,ddr,vr,hd,vl,hu: 29% 30% 18%  3%  4%  4%  5%  4%  4%
[libx264 @ 0x5581b864bc00] i4 v,h,dc,ddl,ddr,vr,hd,vl,hu: 27% 24% 11%  5%  7%  6%  8%  5%  7%
[libx264 @ 0x5581b864bc00] i8c dc,h,v,p: 51% 23% 20%  7%
[libx264 @ 0x5581b864bc00] Weighted P-Frames: Y:10.1% UV:3.2%
[libx264 @ 0x5581b864bc00] kb/s:10297.98
[aac @ 0x5581b859ddc0] Qavg: 1314.680
[AVIOContext @ 0x5581b8542080] Statistics: 93446080 bytes read, 1984 seeks
[AVIOContext @ 0x5581b858adc0] Statistics: 1530915 bytes read, 42 seeks
